# xmcd
#
# Track frame offsets: 
#        150
#        18158
#        32371
#        51879
#        68672
#        87032
#        100870
#        118398
#        146141
#        158569
#        170952
#        187715
#        203473
#        219808
#        237636
#        253094
#        269677
#        284895
#        300413
#        310726
#
# Disc length: 4292 seconds
#
# Revision: 0
# Processed by: cddbd v1.5.2PL0 Copyright (c) Steve Scherf et al.
# Submitted via: ExactAudioCopy v1.3
#
DISCID=1910c214
DTITLE=Various Artist - TSP Country and Americana Vol 172
DYEAR=2017
DGENRE=Country
TTITLE0=Chelsea Danfield - Drive Me To Drink
TTITLE1=Jerry Pitman's New Whiskey Revival (Pitman, Diehl) - Late For 
TTITLE1=Work Again
TTITLE2=CR Ecker Band - When I Walked With You
TTITLE3=Ronnie Clinton (Stacey Heydon) - Southern Pride
TTITLE4=Nina Soderquist and Bjorn Skifs - Goodbye
TTITLE5=Caleb Dinger - Just Say the Word
TTITLE6=Matthew Huff - Make Love To Me
TTITLE7=Codie Joe Hodges (Gannon, Kent, Ram) - I'll Be Home for Christ
TTITLE7=mas
TTITLE8=Ann Hamilton Wallace (vocals by Vee McDonald) - Thy Will Be Do
TTITLE8=ne
TTITLE9=The Captain's Crew (Eddie Francis) - Christmas Bells
TTITLE10=Chris Cox - Bettin On A Long Run
TTITLE11=Perry Snyder - What a Wonderful Day
TTITLE12=Cameron Malloy - The Older I Get
TTITLE13=Ann Hamilton Wallace (vocals by Jerry Corbetta) - If Walls Co
TTITLE13=uld Talk
TTITLE14=Perry Snyder (Tom Paden, Lenny Wallace) - Fall Of The Year
TTITLE15=Frank Owen - Crockpots And Microwaves
TTITLE16=Allan Markin - I'm Still Standing
TTITLE17=Frank Wilks - Maybe Tomorrow
TTITLE18=Codie Joe Hodges - Tangled In The Christmas Lights
TTITLE19=Frank Owen - All My Funny Friends
EXTD=
EXTT0=
EXTT1=
EXTT2=
EXTT3=
EXTT4=
EXTT5=
EXTT6=
EXTT7=
EXTT8=
EXTT9=
EXTT10=
EXTT11=
EXTT12=
EXTT13=
EXTT14=
EXTT15=
EXTT16=
EXTT17=
EXTT18=
EXTT19=
PLAYORDER=
